<?xml version="1.0" encoding="utf-8"?>
<!-- Generator: Adobe Illustrator 15.0.0, SVG Export Plug-In . SVG Version: 6.00 Build 0)  -->
<!DOCTYPE svg PUBLIC "-//W3C//DTD SVG 1.1//EN" "http://www.w3.org/Graphics/SVG/1.1/DTD/svg11.dtd">
<svg version="1.1" id="Layer_1" xmlns="http://www.w3.org/2000/svg" xmlns:xlink="http://www.w3.org/1999/xlink" x="0px" y="0px"
	 width="143px" height="68px" viewBox="0 0 143 68" enable-background="new 0 0 143 68" xml:space="preserve">

<g><title>www.CemNet.com</title>
<desc>CemNet.com logo</desc></g>
<g>
	<g id="XMLID_4_">
		<g>
			<path fill="#FFFFFF" d="M142.216,54.503c0,0.409,0,0.819,0,1.231c-1.732,0-3.461,0-5.19,0c-0.07,1.933-0.04,4.322-0.04,6.422
				c0,0.763-0.065,1.505,0,2.153c0.019,0.157,0.06,0.359,0.118,0.5c0.292,0.688,1.278,0.81,2.204,0.847
				c0.986,0.04,2.084,0.001,2.868-0.152c0.092,0.346,0.015,0.857,0.04,1.268c-1.996,0.098-4.188,0.268-5.582-0.423
				c-0.411-0.204-0.723-0.419-0.983-0.807c-0.149-0.221-0.321-0.631-0.354-0.998c-0.069-0.688,0-1.454,0-2.232
				c0-2.106,0-4.469,0-6.577c-1.457,0-2.913,0-4.366,0c0-0.412,0-0.822,0-1.231c1.439,0,2.883,0,4.325,0
				c0.092-1.104,0.015-2.373,0.041-3.54c-0.004-0.055-0.009-0.109,0.037-0.113c0.551,0,1.102,0,1.651,0c0,1.218,0,2.434,0,3.653
				C138.729,54.503,140.473,54.503,142.216,54.503z"/>
			<path fill="#FFFFFF" d="M141.981,2.768c0,14.823,0,29.643,0,44.467c-3.829,0-7.656,0-11.483,0c0-2.799,0-5.817,0-8.733
				c0-0.402,0.073-0.897,0-1.232c-0.019-0.07-0.132-0.205-0.197-0.346c-0.167-0.357-0.356-0.723-0.55-1.075
				c-0.097-0.177-0.159-0.339-0.275-0.54c-0.075-0.13-0.217-0.335-0.314-0.5c-0.031-0.053-0.041-0.135-0.079-0.19
				c-0.029-0.051-0.092-0.074-0.118-0.117c-0.034-0.056-0.046-0.14-0.076-0.191c-0.035-0.051-0.087-0.103-0.12-0.154
				c-0.017-0.027-0.017-0.086-0.039-0.117c-0.015-0.016-0.069-0.021-0.079-0.039c-0.034-0.053-0.046-0.143-0.078-0.192
				c-0.026-0.039-0.074-0.085-0.118-0.152c-0.034-0.056-0.085-0.105-0.116-0.155c-0.061-0.09-0.074-0.181-0.157-0.27
				c-0.019-0.016-0.069-0.022-0.08-0.038c-0.035-0.05-0.05-0.145-0.077-0.191c-0.02-0.03-0.058-0.043-0.081-0.077
				c-0.126-0.206-0.34-0.473-0.509-0.694c-0.07-0.091-0.166-0.176-0.234-0.268c-0.028-0.034-0.014-0.086-0.043-0.117
				c-0.017-0.018-0.063-0.021-0.078-0.039c-0.036-0.043-0.072-0.095-0.118-0.152c-0.065-0.082-0.149-0.202-0.236-0.308
				c-0.083-0.101-0.15-0.21-0.235-0.308c-0.156-0.186-0.33-0.374-0.512-0.579c-0.085-0.096-0.188-0.176-0.275-0.27
				c-0.083-0.093-0.144-0.211-0.234-0.308c-0.091-0.093-0.194-0.141-0.276-0.229c-0.038-0.042-0.07-0.101-0.116-0.156
				c-0.259-0.299-0.633-0.615-0.944-0.923c-0.365-0.356-0.721-0.713-1.103-1.039c-3.117-2.67-6.654-4.911-10.498-6.768
				c-7.74-3.744-16.714-6.427-27.093-7.579c0,11.385,0,22.771,0,34.157c-17.531,0-35.474,0-53.083,0
				c-2.289,0-4.445,0.009-6.488-0.153c-2.564-0.205-4.927-0.624-7.117-1.192c-2.98-0.776-5.682-1.992-8.021-3.464
				c-3.957-2.483-7.192-5.952-8.887-10.77c-0.573-1.63-0.909-3.446-1.062-5.423c0-0.857,0-1.718,0-2.576c0.013,0,0.026,0,0.039,0
				c0.149-3.07,0.936-5.71,2.084-7.925c0.071-0.136,0.161-0.245,0.236-0.385c0.072-0.133,0.12-0.289,0.196-0.421
				c0.167-0.295,0.387-0.628,0.551-0.886c0.177-0.279,0.419-0.577,0.59-0.808c0.12-0.162,0.246-0.389,0.354-0.5
				c0.026-0.027,0.013-0.042,0.04-0.075c0.064-0.085,0.191-0.176,0.236-0.232c0.024-0.029,0.013-0.083,0.04-0.114
				c0.088-0.109,0.223-0.202,0.314-0.309c0.098-0.112,0.177-0.236,0.275-0.345c0.104-0.119,0.208-0.232,0.314-0.346
				c0.403-0.438,0.84-0.897,1.258-1.269c0.052-0.048,0.139-0.067,0.196-0.116c0.058-0.05,0.102-0.107,0.157-0.155
				c0.234-0.205,0.442-0.396,0.668-0.577c0.186-0.147,0.389-0.301,0.551-0.421c0.061-0.046,0.098-0.11,0.157-0.155
				C9.187,8.616,9.39,8.509,9.506,8.422c0.03-0.019,0.044-0.051,0.079-0.077c0.061-0.039,0.136-0.072,0.197-0.114
				C9.839,8.193,9.88,8.114,9.939,8.076c0.072-0.048,0.166-0.067,0.236-0.116c0.126-0.083,0.225-0.186,0.354-0.269
				c0.036-0.021,0.087-0.02,0.118-0.039c0.023-0.013,0.052-0.059,0.079-0.075c0.341-0.223,0.79-0.478,1.101-0.654
				c0.08-0.047,0.147-0.088,0.196-0.117c0.179-0.107,0.339-0.18,0.511-0.268c0.62-0.317,1.324-0.662,1.927-0.923
				c0.303-0.131,0.649-0.284,0.904-0.386c0.089-0.035,0.157-0.045,0.236-0.075c0.246-0.096,0.492-0.208,0.668-0.269
				c0.084-0.029,0.159-0.05,0.236-0.079c1.342-0.476,2.806-0.866,4.247-1.152c0.781-0.157,1.619-0.296,2.477-0.425
				c2.231-0.33,4.692-0.461,7.196-0.461c10.13,0,20.625-0.032,30.631,0.039c-0.026,3.476,0.052,7.053-0.04,10.463
				c-8.344,0-16.854,0-25.205,0c-2.802,0-5.606-0.099-8.336,0.075c-1.266,0.082-2.505,0.26-3.696,0.5
				c-1.214,0.245-2.471,0.553-3.46,0.961c-0.557,0.229-1.152,0.497-1.612,0.731c-0.254,0.129-0.491,0.223-0.708,0.348
				c-0.164,0.094-0.336,0.226-0.472,0.306c-0.121,0.07-0.216,0.13-0.314,0.194c-0.061,0.037-0.102,0.079-0.157,0.114
				c-0.636,0.425-1.255,0.881-1.77,1.386c-1.889,1.848-3.393,4.452-2.988,8.307c0.074,0.702,0.241,1.359,0.393,1.886
				c0.074,0.255,0.122,0.426,0.197,0.615c0.216,0.548,0.503,1.106,0.787,1.537c0.077,0.117,0.127,0.211,0.196,0.308
				c0.085,0.12,0.208,0.277,0.275,0.346c0.028,0.031,0.013,0.082,0.039,0.116c0.074,0.094,0.19,0.169,0.275,0.271
				c0.036,0.043,0.049,0.117,0.079,0.152c0.044,0.053,0.111,0.064,0.157,0.117c0.043,0.048,0.036,0.103,0.079,0.154
				c0.033,0.04,0.117,0.074,0.157,0.114c0.169,0.176,0.33,0.378,0.511,0.54c0.046,0.04,0.106,0.037,0.157,0.075
				c0.107,0.085,0.229,0.253,0.315,0.308c0.15,0.098,0.316,0.271,0.433,0.346c0.065,0.042,0.119,0.093,0.157,0.116
				c0.38,0.247,0.817,0.582,1.18,0.808c0.067,0.043,0.12,0.093,0.157,0.115c0.106,0.062,0.246,0.095,0.354,0.154
				c0.117,0.064,0.205,0.135,0.315,0.192c0.712,0.39,1.429,0.69,2.202,0.962c0.252,0.09,0.488,0.186,0.747,0.269
				c1.362,0.442,2.763,0.727,4.326,0.924c1.879,0.24,3.948,0.232,6.095,0.232c14.039,0,28.118,0,42.074,0
				c0-11.618,0-23.234,0-34.848c0.235,0,0.472,0,0.708,0c4.458,0.226,8.723,0.5,12.859,1.037c1.014,0.133,2.02,0.271,3.026,0.423
				c0.324,0.049,0.661,0.098,0.982,0.154c5.256,0.917,10.212,2.077,14.863,3.54c4.67,1.466,9.063,3.22,13.095,5.308
				c0.937,0.484,1.857,1.013,2.793,1.537c0.095,0.056,0.174,0.099,0.273,0.154c0.174,0.101,0.43,0.266,0.629,0.384
				c0.128,0.077,0.271,0.117,0.396,0.194c0.041,0.022,0.088,0.072,0.155,0.114c2.053,1.282,4.158,2.739,6.017,4.27
				c0.103,0.084,0.187,0.168,0.315,0.269c0.05,0.039,0.108,0.077,0.159,0.115c0.074,0.062,0.135,0.218,0.272,0.192
				c0-5.64,0-11.283,0-16.924C134.325,2.768,138.152,2.768,141.981,2.768z"/>
			<path fill="#FFFFFF" d="M129.278,57.617c0.666,0.872,1.116,2.021,0.905,3.539c-6.58,0-13.16,0-19.738,0
				c0.028,0.706,0.319,1.442,0.669,1.961c1.363,2.045,4.64,2.812,8.256,2.812c2.573,0,5.249-0.369,6.999-1.352
				c0.436-0.238,0.796-0.55,1.142-0.92c0.028-0.03,0.091-0.045,0.116-0.076c0.025-0.032,0.015-0.082,0.041-0.117
				c0.041-0.057,0.12-0.095,0.156-0.152c0.051-0.08,0.065-0.173,0.117-0.271c0.108-0.198,0.284-0.519,0.353-0.808
				c0.565,0,1.131,0,1.692,0c-0.073,0.446-0.208,0.85-0.392,1.231c-0.111,0.228-0.203,0.376-0.355,0.577
				c-0.062,0.083-0.129,0.15-0.194,0.231c-0.04,0.049-0.04,0.106-0.081,0.152c-0.223,0.257-0.612,0.549-0.941,0.771
				c-0.843,0.568-1.87,1.001-3.069,1.306c-0.783,0.2-1.768,0.441-2.752,0.502c-0.887,0.053-1.832,0-2.794,0
				c-0.927,0-1.881,0.053-2.79,0c-0.479-0.03-0.981-0.135-1.494-0.232c-1.114-0.208-2.188-0.502-3.067-0.998
				c-0.047-0.029-0.044-0.009-0.08-0.04c-0.052-0.052-0.24-0.09-0.352-0.152c-0.017-0.01-0.026-0.071-0.038-0.077
				c-0.021-0.01-0.062,0.01-0.08,0c-0.014-0.01-0.028-0.072-0.04-0.075c-0.021-0.013-0.061,0.01-0.08,0
				c-0.119-0.08-0.245-0.174-0.392-0.272c-0.015-0.008-0.026-0.07-0.039-0.075c-0.128-0.058-0.293-0.196-0.431-0.31
				c-0.014-0.01-0.029-0.072-0.043-0.075c-0.185-0.084-0.321-0.289-0.47-0.464c-0.069-0.078-0.133-0.148-0.197-0.23
				c-0.024-0.032-0.134-0.104-0.157-0.152c-0.139-0.309-0.406-0.646-0.55-1.038c-0.146-0.397-0.348-0.902-0.392-1.464
				c-0.092-1.103,0.098-2,0.47-2.729c0.029-0.062,0.044-0.135,0.08-0.192c0.02-0.039,0.094-0.077,0.12-0.119
				c0.036-0.062,0.041-0.135,0.075-0.188c0.031-0.047,0.082-0.062,0.118-0.116c0.044-0.059,0.037-0.139,0.078-0.193
				c0.082-0.109,0.238-0.213,0.354-0.345c0.049-0.056,0.078-0.11,0.117-0.154c0.066-0.071,0.143-0.188,0.236-0.269
				c0.044-0.039,0.109-0.039,0.159-0.077c0.174-0.15,0.321-0.33,0.51-0.463c0.783-0.555,1.684-0.987,2.674-1.345
				c0.484-0.177,1.011-0.342,1.531-0.463c1.073-0.25,2.24-0.361,3.582-0.424c2.979-0.135,5.911,0.384,7.901,1.347
				C127.765,56.123,128.632,56.768,129.278,57.617z M110.445,59.964c6.017,0,12.032,0,18.047,0
				c-0.003-0.416-0.188-0.854-0.312-1.116c-0.069-0.135-0.147-0.331-0.198-0.385c-0.058-0.058-0.08-0.104-0.116-0.155
				c-0.304-0.388-0.7-0.766-1.063-1.037c-3.085-2.273-9.824-2.341-13.409-0.575C111.959,57.399,110.831,58.468,110.445,59.964z"/>
			<path fill="#FFFFFF" d="M105.214,58.308c0.079,0.67,0,1.424,0,2.157c0,2.107,0,4.152,0,6.384c-0.563,0-1.125,0-1.69,0
				c0-1.977,0-4.175,0-6.229c0-0.957,0.109-1.987-0.159-2.656c-0.298-0.745-1.037-1.268-1.807-1.615
				c-0.092-0.038-0.186-0.126-0.277-0.152c-0.17-0.053-0.329-0.085-0.549-0.153c-0.358-0.114-0.847-0.26-1.335-0.348
				c-2.531-0.454-5.64-0.265-7.669,0.461c-0.087,0.034-0.21,0.069-0.313,0.115c-0.114,0.054-0.348,0.116-0.51,0.192
				c-0.344,0.16-0.732,0.38-1.064,0.617c-0.174,0.124-0.338,0.334-0.551,0.462c-0.087,0.05-0.094,0.117-0.196,0.232
				c-0.038,0.04-0.125,0.073-0.157,0.113c-0.028,0.029-0.012,0.079-0.04,0.115c-0.013,0.019-0.063,0.021-0.08,0.039
				c-0.018,0.027-0.013,0.082-0.037,0.113c-0.056,0.075-0.156,0.194-0.234,0.347c-0.125,0.23-0.319,0.681-0.355,1.002
				c-0.069,0.605,0,1.246,0,1.844c0,1.856,0,3.501,0,5.501c-0.575,0-1.153,0-1.729,0c0-4.114,0-8.229,0-12.346
				c0.575,0,1.153,0,1.729,0c0,0.678,0,1.357,0,2.039c0.02,0.171,0.119-0.042,0.117-0.04c0.058-0.039,0.153-0.08,0.197-0.115
				c0.109-0.089,0.201-0.224,0.312-0.307c0.036-0.025,0.087-0.016,0.12-0.038c0.065-0.05,0.169-0.125,0.276-0.194
				c1.346-0.838,3.222-1.345,5.307-1.537c2.325-0.216,5.006,0.009,6.882,0.579c1.175,0.354,2.195,0.862,2.949,1.688
				c0.361,0.396,0.583,0.72,0.747,1.31C105.139,58.035,105.204,58.19,105.214,58.308z"/>
			<path fill="#FFFFFF" d="M81.427,57.465c0.262,0.819,0.194,1.904,0.194,3.075c0,2.032,0,4.231,0,6.309c-0.563,0-1.125,0-1.688,0
				c0-2.441,0-4.751,0-7.27c0-0.81-0.01-1.537-0.277-2.114c-0.554-1.212-1.987-1.678-3.655-1.887
				c-1.451-0.183-3.049-0.165-4.445,0.039c-0.524,0.077-1.217,0.216-1.73,0.386c-0.198,0.062-0.39,0.183-0.59,0.268
				c-0.057,0.024-0.144,0.017-0.197,0.039c-0.139,0.062-0.452,0.218-0.59,0.346c-0.041,0.04-0.226,0.13-0.314,0.192
				c-0.085,0.058-0.159,0.133-0.236,0.194c-0.243,0.188-0.451,0.36-0.668,0.653c-0.195,0.262-0.29,0.422-0.393,0.731
				c-0.036,0.108-0.136,0.358-0.157,0.538c-0.069,0.597,0,1.312,0,2c0,1.877,0,4.014,0,5.884c-0.564,0-1.127,0-1.691,0
				c0-1.979,0-4.132,0-6.189c0-0.699,0.047-1.396,0-2.04c-0.17-2.291-2.233-2.929-4.64-3.117c-2.869-0.227-5.387,0.325-6.999,1.578
				c-0.796,0.619-1.522,1.524-1.612,2.654c-0.047,0.605,0,1.212,0,1.806c0,1.794,0,3.344,0,5.309c-0.563,0-1.127,0-1.69,0
				c0-4.114,0-8.229,0-12.346c0.563,0,1.127,0,1.69,0c0,0.691,0,1.384,0,2.075c0.018,0.157,0.12-0.021,0.12-0.036V56.54
				c0.141-0.118,0.302-0.252,0.47-0.385c0.608-0.476,1.337-0.885,2.202-1.19c0.854-0.302,1.737-0.49,2.831-0.617
				c3.454-0.4,7.343,0.223,8.808,2.308c0.203-0.128,0.313-0.325,0.472-0.46c0.044-0.036,0.103-0.035,0.157-0.077
				c0.041-0.031,0.081-0.086,0.118-0.115c0.129-0.096,0.27-0.211,0.433-0.309c2.177-1.281,5.859-1.759,9.28-1.269
				c1.096,0.156,2.156,0.446,2.986,0.922c0.028,0.013,0.091,0.02,0.121,0.042c0.019,0.011,0.021,0.062,0.038,0.075
				c0.053,0.032,0.149,0.043,0.196,0.073c0.051,0.036,0.092,0.107,0.157,0.156c0.229,0.171,0.502,0.397,0.71,0.653
				c0.022,0.03,0.013,0.084,0.037,0.115c0.017,0.021,0.066,0.021,0.079,0.039c0.021,0.028,0.017,0.085,0.039,0.117
				c0.015,0.016,0.069,0.021,0.08,0.036c0.036,0.062,0.035,0.149,0.077,0.234C81.225,57.037,81.353,57.24,81.427,57.465z"/>
			<path fill="#FFFFFF" d="M46.468,59.271c0.149,0.563,0.147,1.221,0.079,1.885c-6.58,0-13.159,0-19.739,0
				c-0.008,0.436,0.135,0.831,0.275,1.193c0.975,2.507,4.014,3.335,7.393,3.539c3.38,0.198,7.16-0.27,9.044-1.848
				c0.141-0.117,0.272-0.247,0.393-0.384c0.074-0.085,0.147-0.181,0.236-0.271c0.033-0.03,0.047-0.082,0.079-0.115
				c0.087-0.088,0.21-0.377,0.275-0.537c0.075-0.186,0.111-0.36,0.196-0.502c0.564,0,1.127,0,1.691,0
				c-0.127,0.594-0.255,0.987-0.511,1.425c-0.147,0.25-0.335,0.544-0.55,0.768c-0.167,0.177-0.342,0.362-0.511,0.5
				c-0.033,0.026-0.088,0.01-0.118,0.04c-0.016,0.017-0.021,0.062-0.039,0.076c-0.036,0.025-0.087,0.009-0.118,0.04
				c-0.016,0.014-0.023,0.065-0.039,0.075c-0.047,0.033-0.138,0.04-0.197,0.078c-0.041,0.027-0.075,0.088-0.118,0.114
				c-1.011,0.636-2.374,1.104-3.814,1.386c-0.586,0.114-1.212,0.232-1.809,0.27c-0.895,0.053-1.873,0-2.831,0
				c-0.933,0-1.886,0.056-2.792,0c-0.824-0.055-1.719-0.258-2.477-0.462c-0.18-0.05-0.341-0.093-0.551-0.153
				c-0.07-0.021-0.092-0.057-0.157-0.079c-0.5-0.165-0.983-0.312-1.416-0.536c-0.098-0.05-0.187-0.119-0.314-0.192
				c-0.044-0.026-0.11-0.049-0.157-0.077c-0.09-0.058-0.154-0.119-0.275-0.194c-0.041-0.023-0.126-0.051-0.157-0.075
				c-0.082-0.056-0.151-0.163-0.236-0.23c-0.054-0.04-0.108-0.074-0.157-0.115c-0.226-0.196-0.516-0.438-0.747-0.692
				c-0.14-0.155-0.251-0.372-0.394-0.579c-0.603-0.88-1.098-2.413-0.747-3.958c0.487-2.152,2.437-3.524,4.365-4.312
				c0.123-0.05,0.259-0.064,0.393-0.113c0.105-0.04,0.213-0.119,0.315-0.156c0.493-0.165,1.002-0.263,1.533-0.384
				c0.518-0.117,1.041-0.237,1.612-0.309c2.153-0.259,4.841-0.156,6.842,0.271c0.369,0.08,0.68,0.158,1.062,0.268
				c0.4,0.113,0.915,0.283,1.337,0.465c0.094,0.037,0.175,0.104,0.275,0.148c0.211,0.103,0.431,0.165,0.629,0.271
				c0.036,0.019,0.08,0.091,0.118,0.113c0.042,0.029,0.046,0.012,0.079,0.04c0.026,0.026,0.123,0.072,0.197,0.117
				c0.654,0.393,1.251,0.917,1.73,1.537c0.054,0.07,0.087,0.122,0.157,0.192c0.033,0.033,0.066,0.141,0.118,0.232
				C46.104,58.359,46.351,58.822,46.468,59.271z M44.856,59.964c0.006-0.255-0.076-0.492-0.158-0.731
				c-0.074-0.215-0.159-0.458-0.275-0.653c-0.01-0.017-0.065-0.022-0.079-0.037c-0.025-0.032-0.02-0.088-0.04-0.115
				c-0.195-0.272-0.419-0.527-0.629-0.731c-0.147-0.147-0.279-0.223-0.394-0.308c-0.063-0.05-0.114-0.125-0.157-0.152
				c-0.034-0.027-0.08-0.018-0.118-0.041c-0.061-0.042-0.105-0.12-0.157-0.152c-0.074-0.05-0.166-0.075-0.236-0.119
				c-0.329-0.193-0.732-0.397-1.062-0.536c-3.024-1.277-8.017-1.209-11.01-0.039c-0.639,0.25-1.258,0.614-1.77,0.923
				c-0.167,0.103-0.31,0.242-0.433,0.347c-0.184,0.153-0.357,0.303-0.511,0.463c-0.085,0.088-0.139,0.197-0.196,0.27
				c-0.026,0.032-0.092,0.042-0.118,0.077c-0.038,0.048-0.041,0.135-0.079,0.192c-0.012,0.014-0.065,0.019-0.079,0.036
				c-0.021,0.031-0.023,0.09-0.04,0.119c-0.226,0.375-0.415,0.756-0.511,1.189C32.824,59.964,38.84,59.964,44.856,59.964z"/>
			<path fill="#FFFFFF" d="M21.067,62.156c0.563,0,1.127,0,1.691,0c-0.098,0.911-0.383,1.55-0.865,2.116
				c-0.01,0.01-0.074,0.027-0.079,0.037c-0.105,0.229-0.398,0.432-0.629,0.615c-0.159,0.129-0.28,0.271-0.472,0.385
				c-0.059,0.035-0.132,0.039-0.196,0.077c-0.066,0.042-0.105,0.123-0.157,0.155c-0.062,0.035-0.138,0.044-0.197,0.075
				c-0.469,0.26-1.024,0.499-1.612,0.692c-0.247,0.084-0.598,0.192-0.904,0.271c-0.657,0.163-1.619,0.37-2.398,0.423
				c-0.89,0.056-1.76,0-2.595,0c-0.875,0-1.74,0.056-2.595,0c-0.67-0.043-1.43-0.195-2.084-0.347
				c-0.643-0.148-1.25-0.354-1.809-0.58c-0.431-0.17-0.857-0.354-1.258-0.573c-0.132-0.072-0.275-0.12-0.393-0.194
				c-0.059-0.033-0.097-0.113-0.157-0.153c-0.038-0.026-0.082-0.017-0.118-0.039c-0.223-0.133-0.519-0.383-0.747-0.573
				c-0.183-0.16-0.305-0.274-0.472-0.467c-0.095-0.107-0.167-0.203-0.275-0.345c-0.123-0.155-0.272-0.331-0.393-0.54
				c-0.156-0.263-0.284-0.546-0.393-0.881c-0.133-0.402-0.266-1.004-0.236-1.615c0.062-1.281,0.602-2.321,1.258-3.117
				c0.31-0.372,0.657-0.707,1.101-1.037c0.077-0.058,0.161-0.102,0.236-0.155c0.013-0.01,0.028-0.071,0.04-0.077
				c0.02-0.007,0.061,0.011,0.079,0c0.015-0.012,0.026-0.074,0.04-0.077c0.02-0.008,0.061,0.015,0.079,0
				c0.015-0.008,0.026-0.069,0.039-0.077c0.088-0.037,0.207-0.085,0.314-0.152c0.085-0.054,0.21-0.118,0.354-0.193
				c0.213-0.11,0.487-0.272,0.747-0.387c0.092-0.038,0.211-0.033,0.314-0.075c0.079-0.032,0.153-0.083,0.236-0.113
				c1.411-0.522,3.255-0.88,5.112-0.964c0.984-0.041,2.087-0.045,3.146,0.04c1.817,0.142,3.58,0.51,4.955,1.154
				c0.088,0.043,0.193,0.068,0.275,0.113c0.072,0.044,0.125,0.112,0.197,0.156c0.083,0.048,0.193,0.067,0.275,0.113
				c0.016,0.01,0.026,0.072,0.039,0.075c0.051,0.026,0.133,0.035,0.197,0.08c0.015,0.012,0.026,0.074,0.039,0.077
				c0.02,0.008,0.061-0.015,0.079,0c0.015,0.008,0.026,0.069,0.04,0.075c0.02,0.008,0.062-0.013,0.079,0
				c0.035,0.025,0.046,0.092,0.079,0.115c0.028,0.022,0.088,0.017,0.118,0.039c0.127,0.107,0.27,0.261,0.393,0.386
				c0.097,0.097,0.175,0.187,0.275,0.308c0.349,0.419,0.664,1.079,0.747,1.805c-0.538,0-1.075,0-1.612,0
				c-0.143-0.045-0.141-0.2-0.197-0.345c-0.07-0.179-0.143-0.381-0.275-0.575c-0.782-1.146-2.373-1.818-4.129-2.153
				c-3.378-0.646-7.789-0.187-10.145,1.113c-0.067,0.039-0.131,0.055-0.196,0.117C6,57.007,5.822,57.06,5.732,57.119
				c-0.015,0.008-0.026,0.068-0.04,0.075c-0.02,0.01-0.061-0.01-0.079,0c-0.015,0.01-0.026,0.068-0.04,0.076
				c-0.226,0.102-0.503,0.34-0.708,0.539c-0.734,0.702-1.488,1.822-1.455,3.194c0.012,0.456,0.152,0.956,0.354,1.383
				c0.069,0.146,0.169,0.295,0.275,0.462c0.093,0.146,0.18,0.232,0.314,0.384c0.024,0.029,0.085,0.076,0.118,0.116
				c0.034,0.041,0.047,0.121,0.079,0.155c0.106,0.108,0.257,0.197,0.393,0.308c0.333,0.266,0.742,0.583,1.18,0.808
				c2.236,1.145,5.929,1.593,9.28,1.114c0.395-0.055,0.775-0.116,1.14-0.191c1.018-0.215,2.101-0.612,2.91-1.117
				C20.297,63.901,20.901,63.334,21.067,62.156z"/>
		</g>
		<g>
		</g>
	</g>
</g>
</svg>
